<svg xmlns="http://www.w3.org/2000/svg" viewBox="0 0 192 192" width="192" height="192">
  <!-- Background circle -->
  <circle cx="96" cy="96" r="96" fill="#3B82F6"/>
  
  <!-- Main chat bubble -->
  <path d="M48 48h96c13.2 0 24 10.8 24 24v36c0 13.2-10.8 24-24 24h-24l-24 24v-24H48c-13.2 0-24-10.8-24-24V72c0-13.2 10.8-24 24-24z" fill="white"/>
  
  <!-- Chat bubble tail -->
  <path d="M96 120l-12 12v-12H48c-6.6 0-12-5.4-12-12V72c0-6.6 5.4-12 12-12h96c6.6 0 12 5.4 12 12v36c0 6.6-5.4 12-12 12h-24l-24 24z" fill="white"/>
  
  <!-- Message dots -->
  <circle cx="72" cy="84" r="9" fill="#3B82F6"/>
  <circle cx="96" cy="84" r="9" fill="#3B82F6"/>
  <circle cx="120" cy="84" r="9" fill="#3B82F6"/>
</svg>
