<svg xmlns="http://www.w3.org/2000/svg" viewBox="0 0 32 32" width="32" height="32">
  <!-- Background circle -->
  <circle cx="16" cy="16" r="16" fill="#3B82F6"/>
  
  <!-- Main chat bubble -->
  <path d="M8 8h16c2.2 0 4 1.8 4 4v6c0 2.2-1.8 4-4 4h-4l-4 4v-4H8c-2.2 0-4-1.8-4-4v-6c0-2.2 1.8-4 4-4z" fill="white"/>
  
  <!-- Chat bubble tail -->
  <path d="M16 20l-2 2v-2h-6c-1.1 0-2-.9-2-2v-6c0-1.1.9-2 2-2h16c1.1 0 2 .9 2 2v6c0 1.1-.9 2-2 2h-4l-4 4z" fill="white"/>
  
  <!-- Message dots -->
  <circle cx="12" cy="14" r="1.5" fill="#3B82F6"/>
  <circle cx="16" cy="14" r="1.5" fill="#3B82F6"/>
  <circle cx="20" cy="14" r="1.5" fill="#3B82F6"/>
</svg>
